<svg id="Layer_1" data-name="Layer 1" xmlns="http://www.w3.org/2000/svg" viewBox="0 0 690 382"><defs><style>.cls-1{fill:#fcfcfc;}</style></defs><title>LOGO_RAD_white</title><path class="cls-1" d="M991.5,434l-10,17.5c-16.5-15-36.5-24.5-64-24.5-70,0-122,57-122,132s52,132,122,132c27.5,0,47.5-9.5,64-24.5l10,17.5h66V434ZM929,628c-37.5,0-64.5-29-64.5-69s27-69,64.5-69,64.5,29,64.5,69S966.5,628,929,628Z" transform="translate(-655 -309)"/><path class="cls-1" d="M727.5,451.5l-10-17.5H655V684h67.5V554c0-40,17.5-61,57.5-61h7.5V428H780C755,428,737.5,439,727.5,451.5Z" transform="translate(-655 -309)"/><path class="cls-1" d="M1277.5,309V459c-17.5-20-42.5-32-72.5-32-70,0-122,57-122,132s52,132,122,132c27.5,0,47.5-9.5,64-24.5l10,17.5h66V309Zm-61,319c-37.5,0-64.5-29-64.5-69s27-69,64.5-69,64.5,29,64.5,69S1254,628,1216.5,628Z" transform="translate(-655 -309)"/></svg>